<svg xmlns="http://www.w3.org/2000/svg" width="512" height="512"><path fill="#526471" d="M65.62 111.46v44.17c-1.92.85-3.97 1.44-6.12 1.75-1.13.17-2.28.25-3.46.25-13.3 0-24.09-10.78-24.09-24.09 0-13.3 10.79-24.08 24.09-24.08 1.18 0 2.33.08 3.46.25 2.15.31 4.2.9 6.12 1.75zM65.62 193.1v44.17c-1.92.85-3.97 1.44-6.12 1.75-1.13.17-2.28.25-3.46.25-13.3 0-24.09-10.78-24.09-24.09 0-13.3 10.79-24.08 24.09-24.08 1.18 0 2.33.08 3.46.25 2.15.31 4.2.91 6.12 1.75zM65.62 274.73v44.18a23.28 23.28 0 0 1-6.12 1.74c-1.13.17-2.28.26-3.46.26-13.3 0-24.09-10.79-24.09-24.09s10.79-24.09 24.09-24.09c1.18 0 2.33.08 3.46.25 2.15.31 4.2.9 6.12 1.75zM65.62 356.37v44.18a23.28 23.28 0 0 1-6.12 1.74c-1.13.17-2.28.26-3.46.26-13.3 0-24.09-10.79-24.09-24.09s10.79-24.09 24.09-24.09c1.18 0 2.33.08 3.46.25 2.15.31 4.2.9 6.12 1.75z"/><path fill="#ECEFF0" d="m473.34 406.72-17.5 34.07-17.5-34.07z"/><path fill="#DD6475" d="M473.34 71.21v19.42c-.59-.13-1.2-.2-1.83-.2h-31.33c-.63 0-1.25.07-1.84.2V71.21h35z"/><path fill="#A7B7C1" d="M473.34 90.63c3.84.84 6.71 4.26 6.71 8.35s-2.87 7.5-6.71 8.34c-.59.13-1.2.2-1.83.2h-31.33a8.538 8.538 0 0 1-8.54-8.54c0-2.36.96-4.5 2.5-6.04a8.579 8.579 0 0 1 4.2-2.31c.59-.13 1.21-.2 1.84-.2h31.33c.63 0 1.24.07 1.83.2z"/><path fill="#FFC035" d="M473.34 107.32v299.4h-35v-299.4c.59.13 1.21.2 1.84.2h31.33c.63 0 1.24-.07 1.83-.2z"/><path d="M473.34 90.63V71.21h-14v19.22h-1.83a8.548 8.548 0 0 1 8.54 8.55c0 4.09-2.87 7.5-6.71 8.34-.59.13-1.2.2-1.83.2h1.83v299.2l-10.5 20.44 7 13.63 17.5-34.07v-299.4c3.84-.84 6.71-4.25 6.71-8.34s-2.87-7.51-6.71-8.35z" opacity=".2"/><path fill="#ECEFF0" d="M366.08 65.24c16 0 28.99 12.98 28.99 28.99v323.54c0 16.01-12.99 28.99-28.99 28.99h-28.99c16 0 28.99-12.98 28.99-28.99V94.23c0-16.01-12.99-28.99-28.99-28.99h28.99z"/><path fill="#303C44" d="M377.58 94.23v323.54c0 16.01-12.99 28.99-28.99 28.99h-11.5c16 0 28.99-12.98 28.99-28.99V94.23c0-16.01-12.99-28.99-28.99-28.99h11.5c16 0 28.99 12.98 28.99 28.99z" opacity=".2"/><path fill="#FFC035" d="M104.26 105.61h223.19v68.75H104.26z"/><path fill="#ECEFF0" d="M165.62 231.22c17.67 0 32 14.32 32 31.99s-14.33 31.99-32 31.99c-17.66 0-31.99-14.32-31.99-31.99s14.33-31.99 31.99-31.99zM266.08 331.67c17.67 0 31.99 14.33 31.99 32s-14.32 31.99-31.99 31.99-31.99-14.32-31.99-31.99c0-17.67 14.32-32 31.99-32z"/><path fill="#303C44" d="M337.09 65.24H94.62c-16 0-28.99 12.98-28.99 28.99l-.01.01v323.53a29.158 29.158 0 0 0 .58 5.75l.03.15.01.01c0 .01 0 .03.01.04.03.19.07.38.12.56.04.19.09.38.13.56.06.26.13.52.21.78.07.26.14.52.22.77.57 1.82 1.31 3.55 2.2 5.2.36.66.74 1.31 1.15 1.93 1.11 1.72 2.4 3.3 3.84 4.74 1.97 1.97 4.22 3.66 6.68 5 1.24.67 2.52 1.25 3.86 1.74.88.33 1.79.61 2.72.85 2.31.59 4.74.91 7.24.91h242.47c16 0 28.99-12.98 28.99-28.99V94.23c0-16.01-12.99-28.99-28.99-28.99zM165.62 295.2c-17.66 0-31.99-14.32-31.99-31.99 0-17.67 14.33-31.99 31.99-31.99 17.67 0 32 14.32 32 31.99 0 17.67-14.33 31.99-32 31.99zm100.46 100.46c-17.67 0-31.99-14.32-31.99-31.99 0-17.67 14.32-32 31.99-32 17.67 0 31.99 14.33 31.99 32s-14.32 31.99-31.99 31.99zm61.37-221.3H104.26v-68.75h223.19v68.75z"/><path fill="none" d="M104.26 105.61h223.19v68.75H104.26zM366.08 417.77V94.23M337.09 65.24c16 0 28.99 12.98 28.99 28.99M366.08 417.77c0 16.01-12.99 28.99-28.99 28.99M395.07 417.77V94.23M366.08 65.24c16 0 28.99 12.98 28.99 28.99M395.07 417.77c0 16.01-12.99 28.99-28.99 28.99M84.66 445c.89.32 1.79.61 2.72.85M74.12 438.26c1.97 1.97 4.22 3.66 6.68 5M69.13 431.59c.36.66.74 1.3 1.15 1.93M66.93 426.39c-.08-.25-.15-.51-.22-.77-.08-.26-.15-.52-.21-.78-.05-.17-.09-.35-.13-.52v-.04c-.01-.03-.02-.07-.03-.11l-.03-.12c-.02-.12-.05-.24-.07-.37l-.01-.01-.03-.15a28.803 28.803 0 0 1-.58-5.75v-180.5M65.62 155.63v37.47M65.62 111.46V94.24"/><path fill="none" d="M94.62 446.76c-2.5 0-4.93-.32-7.24-.91-.93-.24-1.84-.52-2.72-.85a29.16 29.16 0 0 1-3.86-1.74 29.232 29.232 0 0 1-6.68-5 28.75 28.75 0 0 1-3.84-4.74c-.41-.62-.79-1.27-1.15-1.93-.89-1.65-1.63-3.38-2.2-5.2-.84-2.72-1.3-5.62-1.3-8.62M65.63 94.23c0-16.01 12.99-28.99 28.99-28.99M94.62 65.24h242.47M94.62 446.76h242.47M65.62 400.55a23.28 23.28 0 0 1-6.12 1.74c-1.13.17-2.28.26-3.46.26-13.3 0-24.09-10.79-24.09-24.09s10.79-24.09 24.09-24.09c1.18 0 2.33.08 3.46.25 2.15.31 4.2.9 6.12 1.75M65.62 318.91a23.28 23.28 0 0 1-6.12 1.74c-1.13.17-2.28.26-3.46.26-13.3 0-24.09-10.79-24.09-24.09s10.79-24.09 24.09-24.09c1.18 0 2.33.08 3.46.25 2.15.31 4.2.9 6.12 1.75M65.62 193.1v44.17c-1.92.85-3.97 1.44-6.12 1.75-1.13.17-2.28.25-3.46.25-13.3 0-24.09-10.78-24.09-24.09 0-13.3 10.79-24.08 24.09-24.08 1.18 0 2.33.08 3.46.25 2.15.31 4.2.91 6.12 1.75zM65.62 111.46v44.17c-1.92.85-3.97 1.44-6.12 1.75-1.13.17-2.28.25-3.46.25-13.3 0-24.09-10.78-24.09-24.09 0-13.3 10.79-24.08 24.09-24.08 1.18 0 2.33.08 3.46.25 2.15.31 4.2.9 6.12 1.75zM337.09 65.24h28.99M337.09 446.76h28.99M473.34 90.63c3.84.84 6.71 4.26 6.71 8.35s-2.87 7.5-6.71 8.34c-.59.13-1.2.2-1.83.2h-31.33a8.538 8.538 0 0 1-8.54-8.54c0-2.36.96-4.5 2.5-6.04a8.579 8.579 0 0 1 4.2-2.31c.59-.13 1.21-.2 1.84-.2h31.33c.63 0 1.24.07 1.83.2z"/><path fill="none" d="M473.34 90.65V71.21h-35v19.44M473.34 107.32v299.4h-35v-299.4M438.34 406.72l17.5 34.07M473.34 406.72l-17.5 34.07"/><path fill="#ECEFF0" d="M145.04 388.25a4 4 0 0 1-2.829-6.828l141.63-141.621a4 4 0 1 1 5.656 5.657l-141.63 141.62a3.984 3.984 0 0 1-2.827 1.172z"/><path fill="none" d="M165.62 231.22c17.67 0 32 14.32 32 31.99s-14.33 31.99-32 31.99c-17.66 0-31.99-14.32-31.99-31.99s14.33-31.99 31.99-31.99zM266.08 331.67c17.67 0 31.99 14.33 31.99 32s-14.32 31.99-31.99 31.99-31.99-14.32-31.99-31.99c0-17.67 14.32-32 31.99-32z"/><path d="M65.62 111.46v44.17c-1.92.85-3.97 1.44-6.12 1.75v-47.67c2.15.31 4.2.9 6.12 1.75zM59.5 191.35c2.15.31 4.2.91 6.12 1.75v44.17c-1.92.85-3.97 1.44-6.12 1.75v-47.67zM59.5 272.98c2.15.31 4.2.9 6.12 1.75v44.18a23.28 23.28 0 0 1-6.12 1.74v-47.67zM65.62 356.37v44.18a23.28 23.28 0 0 1-6.12 1.74v-47.67c2.15.31 4.2.9 6.12 1.75z" opacity=".2"/><linearGradient id="a" x1="104.26" x2="327.45" y1="139.985" y2="139.985" gradientUnits="userSpaceOnUse"><stop offset="0"/><stop offset="1" stop-color="#FFF" stop-opacity="0"/></linearGradient><path fill="url(#a)" d="m104.26 174.36 223.19-68.75v68.75z" opacity=".2"/></svg>